# xmcd
#
# Track frame offsets:
#	150
#	15134
#	31620
#	47111
#	62582
#	81402
#	98495
#	115101
#	131506
#	143503
#	157230
#	177207
#
# Disc length: 2567 seconds
#
# Revision: 2
# Processed by: cddbd v1.4PL0 Copyright (c) Steve Scherf et al.
# Submitted via: audiograbber 1.82.02
#
DISCID=8a0a050c
DTITLE=The Boots Band - Out In The Country
DYEAR=2003
DGENRE=Country
TTITLE0=Cadillac Drive
TTITLE1=Rock You ( Duet with Ann Tayler )
TTITLE2=Sugar And Pai
TTITLE3=Out In The Country
TTITLE4=Raining On Sunday
TTITLE5=Light Of My Life
TTITLE6=Promise Me
TTITLE7=Lean On Love
TTITLE8=You Didn`t Hear It From Me
TTITLE9=All Again
TTITLE10=Indian Girl
TTITLE11=I`m On My Way
EXTD=
EXTT0=
EXTT1=
EXTT2=
EXTT3=
EXTT4=
EXTT5=
EXTT6=
EXTT7=
EXTT8=
EXTT9=
EXTT10=
EXTT11=
PLAYORDER=
